# xmcd CD database file
#
# Track frame offsets:
#	150
#	21560
#	39512
#	57922
#	75095
#	92540
#	116922
#	135380
#	152825
#	172572
#	190127
#	207285
#	228347
#	247737
#	260290
#	278415
#	297452
#
# Disc length: 4161 seconds
#
# Revision: 0
# Processed by: cddbd v1.5.1PL0 Copyright (c) Steve Scherf et al.
# Submitted via: CDex 1.51
#
DISCID=d5103f11
DTITLE=MIS-TEEQ - EYE CANDY
DYEAR=1900
DGENRE=Pop
TTITLE0=My Song
TTITLE1=Scandalous [StarGate Radio Mix]
TTITLE2=Can't Get It Back
TTITLE3=Dance Your Cares Away
TTITLE4=All In One Day
TTITLE5=Strawberrez
TTITLE6=Nitro
TTITLE7=Home Tonight - Featuring Joe
TTITLE8=So Me Like That
TTITLE9=That's Just Not Me - Featuring Baby Cham
TTITLE10=How Does It Feel
TTITLE11=Best Friends
TTITLE12=It's Beginning To Feel Like Love
TTITLE13=Eye Candy
TTITLE14=Just For You
TTITLE15=Hey Yo
TTITLE16=Style
EXTD=
EXTT0=
EXTT1=
EXTT2=
EXTT3=
EXTT4=
EXTT5=
EXTT6=
EXTT7=
EXTT8=
EXTT9=
EXTT10=
EXTT11=
EXTT12=
EXTT13=
EXTT14=
EXTT15=
EXTT16=
PLAYORDER=
